<svg xmlns="http://www.w3.org/2000/svg" version="1.1" xmlns:xlink="http://www.w3.org/1999/xlink" xmlns:svgjs="http://svgjs.dev/svgjs" viewBox="0 0 2400 800" opacity="1"><g fill="#dfe7dd" transform="matrix(1,0,0,1,9.9305419921875,121.59300231933594)"><path d="M-10,10C27.797619047619044,13.958333333333332,97.91666666666666,33.166666666666664,171.42857142857142,29C244.94047619047618,24.833333333333332,271.42857142857144,-7.708333333333334,342.85714285714283,-10C414.2857142857142,-12.291666666666666,442.8571428571428,22.375,514.2857142857142,18C585.7142857142857,13.625,614.2857142857142,-34.541666666666664,685.7142857142857,-31C757.1428571428571,-27.458333333333332,785.7142857142857,34.583333333333336,857.1428571428571,35C928.5714285714286,35.416666666666664,957.142857142857,-29,1028.5714285714284,-29C1099.9999999999998,-29,1128.5714285714287,31.458333333333332,1200,35C1271.4285714285713,38.541666666666664,1300,-10.541666666666666,1371.4285714285713,-12C1442.8571428571427,-13.458333333333334,1471.4285714285713,25.708333333333332,1542.8571428571427,28C1614.285714285714,30.291666666666668,1642.857142857143,-5.375,1714.2857142857142,-1C1785.7142857142856,3.375,1814.2857142857142,53.375,1885.7142857142856,49C1957.1428571428569,44.625,1985.7142857142856,-25.333333333333332,2057.142857142857,-22C2128.5714285714284,-18.666666666666668,2157.142857142857,58.75,2228.5714285714284,65C2300,71.25,2312.2023809523807,-61.79166666666667,2400,8C2487.7976190476193,77.79166666666667,3254.1666666666665,214.16666666666669,2650,400C2045.8333333333335,585.8333333333333,156.25,795.8333333333334,-500,900" transform="matrix(1,0,0,1,0,122)" opacity="0.05"></path><path d="M-10,10C27.797619047619044,13.958333333333332,97.91666666666666,33.166666666666664,171.42857142857142,29C244.94047619047618,24.833333333333332,271.42857142857144,-7.708333333333334,342.85714285714283,-10C414.2857142857142,-12.291666666666666,442.8571428571428,22.375,514.2857142857142,18C585.7142857142857,13.625,614.2857142857142,-34.541666666666664,685.7142857142857,-31C757.1428571428571,-27.458333333333332,785.7142857142857,34.583333333333336,857.1428571428571,35C928.5714285714286,35.416666666666664,957.142857142857,-29,1028.5714285714284,-29C1099.9999999999998,-29,1128.5714285714287,31.458333333333332,1200,35C1271.4285714285713,38.541666666666664,1300,-10.541666666666666,1371.4285714285713,-12C1442.8571428571427,-13.458333333333334,1471.4285714285713,25.708333333333332,1542.8571428571427,28C1614.285714285714,30.291666666666668,1642.857142857143,-5.375,1714.2857142857142,-1C1785.7142857142856,3.375,1814.2857142857142,53.375,1885.7142857142856,49C1957.1428571428569,44.625,1985.7142857142856,-25.333333333333332,2057.142857142857,-22C2128.5714285714284,-18.666666666666668,2157.142857142857,58.75,2228.5714285714284,65C2300,71.25,2312.2023809523807,-61.79166666666667,2400,8C2487.7976190476193,77.79166666666667,3254.1666666666665,214.16666666666669,2650,400C2045.8333333333335,585.8333333333333,156.25,795.8333333333334,-500,900" transform="matrix(1,0,0,1,0,244)" opacity="0.53"></path><path d="M-10,10C27.797619047619044,13.958333333333332,97.91666666666666,33.166666666666664,171.42857142857142,29C244.94047619047618,24.833333333333332,271.42857142857144,-7.708333333333334,342.85714285714283,-10C414.2857142857142,-12.291666666666666,442.8571428571428,22.375,514.2857142857142,18C585.7142857142857,13.625,614.2857142857142,-34.541666666666664,685.7142857142857,-31C757.1428571428571,-27.458333333333332,785.7142857142857,34.583333333333336,857.1428571428571,35C928.5714285714286,35.416666666666664,957.142857142857,-29,1028.5714285714284,-29C1099.9999999999998,-29,1128.5714285714287,31.458333333333332,1200,35C1271.4285714285713,38.541666666666664,1300,-10.541666666666666,1371.4285714285713,-12C1442.8571428571427,-13.458333333333334,1471.4285714285713,25.708333333333332,1542.8571428571427,28C1614.285714285714,30.291666666666668,1642.857142857143,-5.375,1714.2857142857142,-1C1785.7142857142856,3.375,1814.2857142857142,53.375,1885.7142857142856,49C1957.1428571428569,44.625,1985.7142857142856,-25.333333333333332,2057.142857142857,-22C2128.5714285714284,-18.666666666666668,2157.142857142857,58.75,2228.5714285714284,65C2300,71.25,2312.2023809523807,-61.79166666666667,2400,8C2487.7976190476193,77.79166666666667,3254.1666666666665,214.16666666666669,2650,400C2045.8333333333335,585.8333333333333,156.25,795.8333333333334,-500,900" transform="matrix(1,0,0,1,0,366)" opacity="1.00"></path></g></svg>